<?xml version="1.0" standalone="no"?><!DOCTYPE svg PUBLIC "-//W3C//DTD SVG 1.1//EN" "http://www.w3.org/Graphics/SVG/1.1/DTD/svg11.dtd"><svg stroke-width="1.25" viewBox="0 0 24 24" version="1.1" xmlns="http://www.w3.org/2000/svg" xmlns:xlink="http://www.w3.org/1999/xlink"><defs><style>.cls-qc7cdon3rwcxz4ztslx3-1{fill:none;stroke:#FAF9F6;stroke-miterlimit:10;;}</style></defs><g id="Beat_rate_report" data-name="Beat rate report"><path class="cls-qc7cdon3rwcxz4ztslx3-1" d="M18.7 17.65v4.85H1.52v-20H6.3v1a1.91 1.91 0 0 0 1.9 1.82H12a1.92 1.92 0 0 0 1.91-1.91v-1h4.79v6.25"/><polyline class="cls-qc7cdon3rwcxz4ztslx3-1" points="20.61 13.91 16.8 13.91 14.89 11.04 12.02 15.82 9.16 10.09 7.25 13.91 1.52 13.91"/><line class="cls-qc7cdon3rwcxz4ztslx3-1" x1="21.57" y1="13.91" x2="23.48" y2="13.91"/><path class="cls-qc7cdon3rwcxz4ztslx3-1" d="M13.93 1.5v1.91A1.92 1.92 0 0 1 12 5.32H8.2a1.91 1.91 0 0 1-1.9-1.91V1.5Z"/></g></svg>