<?xml version="1.0" standalone="no"?><!DOCTYPE svg PUBLIC "-//W3C//DTD SVG 1.1//EN" "http://www.w3.org/Graphics/SVG/1.1/DTD/svg11.dtd"><svg stroke-width="1.25" viewBox="0 0 24 24" version="1.1" xmlns="http://www.w3.org/2000/svg" xmlns:xlink="http://www.w3.org/1999/xlink"><defs><style>.cls-z0c9f6pd3gemupjqltme6o-1{fill:none;stroke:#FAF9F6;stroke-miterlimit:10;;}</style></defs><g id="roll_brush" data-name="roll brush"><path class="cls-z0c9f6pd3gemupjqltme6o-1" d="M9.11 17.8h3.35a1.44 1.44 0 0 0 1.44-1.44 1.43 1.43 0 0 0-1.44-1.44h-1a1.44 1.44 0 0 1-1.44-1.44A1.45 1.45 0 0 1 11.5 12h3.36"/><line class="cls-z0c9f6pd3gemupjqltme6o-1" x1="11.98" y1="9.17" x2="11.98" y2="12.04"/><line class="cls-z0c9f6pd3gemupjqltme6o-1" x1="11.98" y1="17.8" x2="11.98" y2="20.67"/><rect class="cls-z0c9f6pd3gemupjqltme6o-1" x="1.43" y="1.49" width="21.1" height="21.1"/><polygon class="cls-z0c9f6pd3gemupjqltme6o-1" points="22.53 7.25 16.26 7.25 14.34 7.25 1.43 7.25 1.43 1.49 22.53 1.49 22.53 7.25"/><line class="cls-z0c9f6pd3gemupjqltme6o-1" x1="4.31" y1="4.37" x2="6.23" y2="4.37"/><line class="cls-z0c9f6pd3gemupjqltme6o-1" x1="8.15" y1="4.37" x2="10.06" y2="4.37"/><line class="cls-z0c9f6pd3gemupjqltme6o-1" x1="11.98" y1="4.37" x2="13.9" y2="4.37"/></g></svg>