<?xml version="1.0" standalone="no"?><!DOCTYPE svg PUBLIC "-//W3C//DTD SVG 1.1//EN" "http://www.w3.org/Graphics/SVG/1.1/DTD/svg11.dtd"><svg stroke-width="1.25" viewBox="0 0 24 24" version="1.1" xmlns="http://www.w3.org/2000/svg" xmlns:xlink="http://www.w3.org/1999/xlink"><defs><style>.cls-7tfjexqeunxfdvuf5r043r-1{fill:none;stroke:#FAF9F6;stroke-linecap:square;stroke-miterlimit:10;;}</style></defs><g id="money_bag_3" data-name="money bag 3"><path class="cls-7tfjexqeunxfdvuf5r043r-1" d="M17.67 22.5H6.33a4.83 4.83 0 0 1-4.83-4.83h0a4.83 4.83 0 0 1 1.24-3.23l7.35-8.17h3.82l7.35 8.17a4.83 4.83 0 0 1 1.24 3.23h0a4.83 4.83 0 0 1-4.83 4.83Z"/><path class="cls-7tfjexqeunxfdvuf5r043r-1" d="m15.82 1.5-.39 2A3.49 3.49 0 0 1 12 6.27h0a3.49 3.49 0 0 1-3.43-2.81l-.39-2Z"/><line class="cls-7tfjexqeunxfdvuf5r043r-1" x1="18.68" y1="3.41" x2="14.86" y2="5.32"/><line class="cls-7tfjexqeunxfdvuf5r043r-1" x1="19.64" y1="6.27" x2="13.91" y2="6.27"/><path class="cls-7tfjexqeunxfdvuf5r043r-1" d="M10.09 17.73h2.39a1.43 1.43 0 0 0 1.43-1.43h0a1.43 1.43 0 0 0-1.43-1.44h-1a1.43 1.43 0 0 1-1.43-1.43h0A1.43 1.43 0 0 1 11.52 12h2.39"/><line class="cls-7tfjexqeunxfdvuf5r043r-1" x1="12" y1="11.05" x2="12" y2="12"/><line class="cls-7tfjexqeunxfdvuf5r043r-1" x1="12" y1="17.73" x2="12" y2="18.68"/></g></svg>