<?xml version="1.0" standalone="no"?><!DOCTYPE svg PUBLIC "-//W3C//DTD SVG 1.1//EN" "http://www.w3.org/Graphics/SVG/1.1/DTD/svg11.dtd"><svg stroke-width="1.25" id="Layer_1" data-name="Layer 1" viewBox="0 0 24 24" version="1.1" xmlns="http://www.w3.org/2000/svg" xmlns:xlink="http://www.w3.org/1999/xlink"><defs><style>.cls-elxjv9fhf2qen5vhdytxfe-1{fill:none;stroke:#FAF9F6;stroke-miterlimit:10;;}</style></defs><path class="cls-elxjv9fhf2qen5vhdytxfe-1" d="M20.59 22.5h-5.73L2.22 10.76a2.25 2.25 0 0 1-.72-1.65 2.28 2.28 0 0 1 .66-1.59L7.79 1.9a1.31 1.31 0 0 1 1-.4 1.34 1.34 0 0 1 1.35 1.35 1.31 1.31 0 0 0 .4.95l.79.8a5.73 5.73 0 0 0 4.05 1.67h1.44l1.45 5.08a2.91 2.91 0 0 0 2.09 2 2.89 2.89 0 0 1 2.19 2.81v4.42a1.9 1.9 0 0 1-1.96 1.92Z"/><polyline class="cls-elxjv9fhf2qen5vhdytxfe-1" points="22.5 18.68 16.77 18.68 3.41 6.27"/><line class="cls-elxjv9fhf2qen5vhdytxfe-1" x1="16.77" y1="5.32" x2="16.77" y2="3.41"/><line class="cls-elxjv9fhf2qen5vhdytxfe-1" x1="14.86" y1="9.14" x2="17.73" y2="9.14"/><line class="cls-elxjv9fhf2qen5vhdytxfe-1" x1="15.82" y1="12.95" x2="19.64" y2="12.95"/></svg>